<mxfile host="app.diagrams.net" agent="Mozilla/5.0 (Windows NT 10.0; Win64; x64) AppleWebKit/537.36 (KHTML, like Gecko) Chrome/130.0.0.0 Safari/537.36" version="24.8.6">
  <diagram name="Page-1" id="lVJEwjW0JexvtOcne24T">
    <mxGraphModel dx="2284" dy="746" grid="1" gridSize="10" guides="1" tooltips="1" connect="1" arrows="1" fold="1" page="1" pageScale="1" pageWidth="850" pageHeight="1100" math="0" shadow="0">
      <root>
        <mxCell id="0" />
        <mxCell id="1" parent="0" />
        <mxCell id="7ZkqqcLxolkk8uUPJkbP-12" style="edgeStyle=orthogonalEdgeStyle;rounded=0;orthogonalLoop=1;jettySize=auto;html=1;exitX=1;exitY=0.5;exitDx=0;exitDy=0;entryX=0;entryY=0.5;entryDx=0;entryDy=0;" edge="1" parent="1" source="7ZkqqcLxolkk8uUPJkbP-1" target="7ZkqqcLxolkk8uUPJkbP-10">
          <mxGeometry relative="1" as="geometry" />
        </mxCell>
        <mxCell id="7ZkqqcLxolkk8uUPJkbP-1" value="" style="rounded=0;whiteSpace=wrap;html=1;fillColor=#FFB570;" vertex="1" parent="1">
          <mxGeometry x="-220" y="140" width="230" height="430" as="geometry" />
        </mxCell>
        <mxCell id="7ZkqqcLxolkk8uUPJkbP-2" value="&amp;nbsp;Disease" style="rounded=1;whiteSpace=wrap;html=1;" vertex="1" parent="1">
          <mxGeometry x="-200" y="160" width="80" height="40" as="geometry" />
        </mxCell>
        <mxCell id="7ZkqqcLxolkk8uUPJkbP-3" value="hospital" style="rounded=1;whiteSpace=wrap;html=1;" vertex="1" parent="1">
          <mxGeometry x="-200" y="210" width="80" height="40" as="geometry" />
        </mxCell>
        <mxCell id="7ZkqqcLxolkk8uUPJkbP-4" value="Source System" style="whiteSpace=wrap;html=1;" vertex="1" parent="1">
          <mxGeometry x="-260" y="60" width="120" height="60" as="geometry" />
        </mxCell>
        <mxCell id="7ZkqqcLxolkk8uUPJkbP-5" value="patient_records" style="rounded=1;whiteSpace=wrap;html=1;" vertex="1" parent="1">
          <mxGeometry x="-200" y="270" width="80" height="40" as="geometry" />
        </mxCell>
        <mxCell id="7ZkqqcLxolkk8uUPJkbP-6" value="subscriber" style="rounded=1;whiteSpace=wrap;html=1;" vertex="1" parent="1">
          <mxGeometry x="-200" y="320" width="85" height="40" as="geometry" />
        </mxCell>
        <mxCell id="7ZkqqcLxolkk8uUPJkbP-7" value="group" style="rounded=1;whiteSpace=wrap;html=1;" vertex="1" parent="1">
          <mxGeometry x="-201.25" y="380" width="91.25" height="30" as="geometry" />
        </mxCell>
        <mxCell id="7ZkqqcLxolkk8uUPJkbP-8" value="grpsubgrp" style="rounded=1;whiteSpace=wrap;html=1;" vertex="1" parent="1">
          <mxGeometry x="-193.75" y="440" width="83.75" height="30" as="geometry" />
        </mxCell>
        <mxCell id="7ZkqqcLxolkk8uUPJkbP-9" value="subgrp&lt;div&gt;&lt;br&gt;&lt;/div&gt;" style="rounded=1;whiteSpace=wrap;html=1;" vertex="1" parent="1">
          <mxGeometry x="-193.75" y="500" width="80" height="30" as="geometry" />
        </mxCell>
        <mxCell id="7ZkqqcLxolkk8uUPJkbP-10" value="" style="rounded=0;whiteSpace=wrap;html=1;" vertex="1" parent="1">
          <mxGeometry x="130" y="140" width="200" height="430" as="geometry" />
        </mxCell>
        <mxCell id="7ZkqqcLxolkk8uUPJkbP-13" value="&lt;span style=&quot;white-space: pre;&quot;&gt;&#x9;&lt;span style=&quot;white-space: pre;&quot;&gt;&#x9;&lt;/span&gt;&lt;/span&gt;Full&lt;div&gt;&lt;span style=&quot;white-space: pre;&quot;&gt;&#x9;&lt;/span&gt;&lt;span style=&quot;white-space: pre;&quot;&gt;&#x9;&lt;/span&gt;Load&lt;/div&gt;" style="rounded=1;whiteSpace=wrap;html=1;" vertex="1" parent="1">
          <mxGeometry x="160" y="160" width="120" height="80" as="geometry" />
        </mxCell>
        <mxCell id="7ZkqqcLxolkk8uUPJkbP-14" value="Data Acquistion" style="rounded=0;whiteSpace=wrap;html=1;fillColor=#FFB570;" vertex="1" parent="1">
          <mxGeometry x="300" y="100" width="120" height="60" as="geometry" />
        </mxCell>
        <mxCell id="7ZkqqcLxolkk8uUPJkbP-15" value="Bulk ingest" style="rounded=1;whiteSpace=wrap;html=1;" vertex="1" parent="1">
          <mxGeometry x="170" y="170" width="60" height="40" as="geometry" />
        </mxCell>
        <mxCell id="7ZkqqcLxolkk8uUPJkbP-17" value="&lt;span style=&quot;white-space: pre;&quot;&gt;&#x9;&lt;/span&gt;Kafka&lt;br&gt;&lt;span style=&quot;white-space: pre;&quot;&gt;&#x9;&lt;/span&gt;&lt;span style=&quot;white-space: pre;&quot;&gt;&#x9;&lt;/span&gt;Consumption" style="rounded=1;whiteSpace=wrap;html=1;" vertex="1" parent="1">
          <mxGeometry x="160" y="310" width="120" height="60" as="geometry" />
        </mxCell>
        <mxCell id="7ZkqqcLxolkk8uUPJkbP-21" style="edgeStyle=orthogonalEdgeStyle;rounded=0;orthogonalLoop=1;jettySize=auto;html=1;exitX=0.75;exitY=0;exitDx=0;exitDy=0;entryX=0.25;entryY=0;entryDx=0;entryDy=0;" edge="1" parent="1" source="7ZkqqcLxolkk8uUPJkbP-18" target="7ZkqqcLxolkk8uUPJkbP-17">
          <mxGeometry relative="1" as="geometry" />
        </mxCell>
        <mxCell id="7ZkqqcLxolkk8uUPJkbP-18" value="Stream ingest" style="rounded=1;whiteSpace=wrap;html=1;" vertex="1" parent="1">
          <mxGeometry x="160" y="310" width="50" height="40" as="geometry" />
        </mxCell>
        <mxCell id="7ZkqqcLxolkk8uUPJkbP-19" value="&lt;span style=&quot;white-space: pre;&quot;&gt;&#x9;&lt;/span&gt;&lt;span style=&quot;white-space: pre;&quot;&gt;&#x9;&lt;/span&gt;Full/Delta&lt;div&gt;&lt;span style=&quot;white-space: pre;&quot;&gt;&#x9;&lt;/span&gt;&lt;span style=&quot;white-space: pre;&quot;&gt;&#x9;&lt;/span&gt;Payload&lt;/div&gt;" style="rounded=1;whiteSpace=wrap;html=1;" vertex="1" parent="1">
          <mxGeometry x="160" y="460" width="120" height="70" as="geometry" />
        </mxCell>
        <mxCell id="7ZkqqcLxolkk8uUPJkbP-20" value="API Ingest" style="rounded=1;whiteSpace=wrap;html=1;" vertex="1" parent="1">
          <mxGeometry x="170" y="470" width="50" height="30" as="geometry" />
        </mxCell>
        <mxCell id="7ZkqqcLxolkk8uUPJkbP-22" value="" style="endArrow=classic;html=1;rounded=0;exitX=1.01;exitY=0.516;exitDx=0;exitDy=0;exitPerimeter=0;" edge="1" parent="1" source="7ZkqqcLxolkk8uUPJkbP-10">
          <mxGeometry width="50" height="50" relative="1" as="geometry">
            <mxPoint x="400" y="410" as="sourcePoint" />
            <mxPoint x="450" y="360" as="targetPoint" />
          </mxGeometry>
        </mxCell>
        <mxCell id="7ZkqqcLxolkk8uUPJkbP-23" value="" style="rounded=0;whiteSpace=wrap;html=1;" vertex="1" parent="1">
          <mxGeometry x="450" y="140" width="750" height="400" as="geometry" />
        </mxCell>
        <mxCell id="7ZkqqcLxolkk8uUPJkbP-24" value="Raw" style="rounded=0;whiteSpace=wrap;html=1;" vertex="1" parent="1">
          <mxGeometry x="470" y="300" width="120" height="60" as="geometry" />
        </mxCell>
        <mxCell id="7ZkqqcLxolkk8uUPJkbP-30" style="edgeStyle=orthogonalEdgeStyle;rounded=0;orthogonalLoop=1;jettySize=auto;html=1;exitX=1;exitY=0.5;exitDx=0;exitDy=0;entryX=0;entryY=0.5;entryDx=0;entryDy=0;" edge="1" parent="1" source="7ZkqqcLxolkk8uUPJkbP-25" target="7ZkqqcLxolkk8uUPJkbP-26">
          <mxGeometry relative="1" as="geometry" />
        </mxCell>
        <mxCell id="7ZkqqcLxolkk8uUPJkbP-25" value="curated" style="rounded=0;whiteSpace=wrap;html=1;" vertex="1" parent="1">
          <mxGeometry x="690" y="300" width="120" height="60" as="geometry" />
        </mxCell>
        <mxCell id="7ZkqqcLxolkk8uUPJkbP-31" style="edgeStyle=orthogonalEdgeStyle;rounded=0;orthogonalLoop=1;jettySize=auto;html=1;exitX=1;exitY=0.5;exitDx=0;exitDy=0;entryX=0;entryY=0.5;entryDx=0;entryDy=0;" edge="1" parent="1">
          <mxGeometry relative="1" as="geometry">
            <mxPoint x="1020" y="330" as="sourcePoint" />
            <mxPoint x="1080" y="330" as="targetPoint" />
          </mxGeometry>
        </mxCell>
        <mxCell id="7ZkqqcLxolkk8uUPJkbP-26" value="Integrated" style="rounded=1;whiteSpace=wrap;html=1;" vertex="1" parent="1">
          <mxGeometry x="900" y="300" width="120" height="60" as="geometry" />
        </mxCell>
        <mxCell id="7ZkqqcLxolkk8uUPJkbP-37" style="edgeStyle=orthogonalEdgeStyle;rounded=0;orthogonalLoop=1;jettySize=auto;html=1;exitX=1;exitY=0.5;exitDx=0;exitDy=0;" edge="1" parent="1" source="7ZkqqcLxolkk8uUPJkbP-27" target="7ZkqqcLxolkk8uUPJkbP-36">
          <mxGeometry relative="1" as="geometry" />
        </mxCell>
        <mxCell id="7ZkqqcLxolkk8uUPJkbP-27" value="Egress" style="rounded=1;whiteSpace=wrap;html=1;" vertex="1" parent="1">
          <mxGeometry x="1080" y="300" width="120" height="60" as="geometry" />
        </mxCell>
        <mxCell id="7ZkqqcLxolkk8uUPJkbP-28" value="" style="endArrow=classic;html=1;rounded=0;exitX=1;exitY=0.5;exitDx=0;exitDy=0;entryX=0;entryY=0.5;entryDx=0;entryDy=0;" edge="1" parent="1" source="7ZkqqcLxolkk8uUPJkbP-24" target="7ZkqqcLxolkk8uUPJkbP-25">
          <mxGeometry width="50" height="50" relative="1" as="geometry">
            <mxPoint x="680" y="410" as="sourcePoint" />
            <mxPoint x="730" y="360" as="targetPoint" />
          </mxGeometry>
        </mxCell>
        <mxCell id="7ZkqqcLxolkk8uUPJkbP-29" value="Pyspark" style="text;html=1;align=center;verticalAlign=middle;whiteSpace=wrap;rounded=0;" vertex="1" parent="1">
          <mxGeometry x="610" y="300" width="60" height="30" as="geometry" />
        </mxCell>
        <mxCell id="7ZkqqcLxolkk8uUPJkbP-32" value="pyspark" style="text;html=1;align=center;verticalAlign=middle;whiteSpace=wrap;rounded=0;" vertex="1" parent="1">
          <mxGeometry x="820" y="300" width="60" height="30" as="geometry" />
        </mxCell>
        <mxCell id="7ZkqqcLxolkk8uUPJkbP-33" value="pyspark" style="text;html=1;align=center;verticalAlign=middle;whiteSpace=wrap;rounded=0;" vertex="1" parent="1">
          <mxGeometry x="1020" y="290" width="60" height="30" as="geometry" />
        </mxCell>
        <mxCell id="7ZkqqcLxolkk8uUPJkbP-36" value="Consumers" style="rounded=1;whiteSpace=wrap;html=1;" vertex="1" parent="1">
          <mxGeometry x="1370" y="160" width="140" height="340" as="geometry" />
        </mxCell>
        <mxCell id="7ZkqqcLxolkk8uUPJkbP-38" value="Data Storage and Processing&amp;nbsp;" style="rounded=1;whiteSpace=wrap;html=1;fillColor=#FFCE9F;" vertex="1" parent="1">
          <mxGeometry x="760" y="120" width="120" height="60" as="geometry" />
        </mxCell>
      </root>
    </mxGraphModel>
  </diagram>
</mxfile>
